STARTFONT 2.1
FONT -JDECW-Gothic-Medium-R-Normal--17-120-100-100-M-85-ISO8859-1
SIZE 12 100 100
FONTBOUNDINGBOX 9 18 0 -3

STARTPROPERTIES 26
FONTNAME_REGISTRY ""
FAMILY_NAME "Gothic"
FOUNDRY "JDECW"
WEIGHT_NAME "Medium"
SLANT "R"
SETWIDTH_NAME "Normal"
ADD_STYLE_NAME ""
PIXEL_SIZE 17
POINT_SIZE 120
RESOLUTION_X 100
RESOLUTION_Y 100
SPACING "M"
AVERAGE_WIDTH 85
CHARSET_REGISTRY "ISO8859"
CHARSET_ENCODING "1"
DEVICE_FONT_NAME "Gothic-ISO8859-1"
CHARSET_COLLECTIONS "ISO8859 1"
FULL_NAME "Gothic-ISO8859-1"
COPYRIGHT "Copyright (c) 1990 1991 TYPEBANK, Digital Equipment Corporation Japan"
CAP_HEIGHT 13
X_HEIGHT 9
WEIGHT 10
QUAD_WIDTH 9
DEFAULT_CHAR 32
FONT_DESCENT 3
FONT_ASCENT 15
ENDPROPERTIES

CHARS 223

STARTCHAR C20
ENCODING 32
SWIDTH 1000 0
DWIDTH 9 0
BBX 9 18 0 -3
BITMAP
0000
0000
0000
0000
0000
0000
0000
0000
0000
0000
0000
0000
0000
0000
0000
0000
0000
0000
ENDCHAR

STARTCHAR C21
ENCODING 33
SWIDTH 1000 0
DWIDTH 9 0
BBX 9 18 0 -3
BITMAP
0000
0000
3800
3800
3800
3800
3800
3800
1000
1000
1000
1000
0000
0000
1000
1000
1000
0000
ENDCHAR

STARTCHAR C22
ENCODING 34
SWIDTH 1000 0
DWIDTH 9 0
BBX 9 18 0 -3
BITMAP
0000
D800
D800
4800
4800
9000
0000
0000
0000
0000
0000
0000
0000
0000
0000
0000
0000
0000
ENDCHAR

STARTCHAR C23
ENCODING 35
SWIDTH 1000 0
DWIDTH 9 0
BBX 9 18 0 -3
BITMAP
0000
0000
1400
1400
1400
7E00
2800
2800
2800
2800
2800
FC00
5000
5000
5000
5000
0000
0000
ENDCHAR

STARTCHAR C24
ENCODING 36
SWIDTH 1000 0
DWIDTH 9 0
BBX 9 18 0 -3
BITMAP
0000
1000
3800
5400
9200
9200
9000
5000
3800
1400
1200
9200
9200
5400
3800
1000
1000
0000
ENDCHAR

STARTCHAR C25
ENCODING 37
SWIDTH 1000 0
DWIDTH 9 0
BBX 9 18 0 -3
BITMAP
0000
0200
6200
9400
9400
9400
9800
6800
1000
1000
2C00
3200
5200
5200
5200
8C00
8000
0000
ENDCHAR

STARTCHAR C26
ENCODING 38
SWIDTH 1000 0
DWIDTH 9 0
BBX 9 18 0 -3
BITMAP
0000
0000
3000
4800
4800
4800
5000
2000
2400
5400
5400
9400
8800
8C00
7200
0000
0000
0000
ENDCHAR

STARTCHAR C27
ENCODING 39
SWIDTH 1000 0
DWIDTH 9 0
BBX 9 18 0 -3
BITMAP
0000
E000
E000
2000
2000
C000
0000
0000
0000
0000
0000
0000
0000
0000
0000
0000
0000
0000
ENDCHAR

STARTCHAR C28
ENCODING 40
SWIDTH 1000 0
DWIDTH 9 0
BBX 9 18 0 -3
BITMAP
0000
0400
0800
1000
1000
2000
2000
2000
2000
2000
2000
2000
2000
1000
1000
0800
0400
0000
ENDCHAR

STARTCHAR C29
ENCODING 41
SWIDTH 1000 0
DWIDTH 9 0
BBX 9 18 0 -3
BITMAP
0000
4000
2000
1000
1000
0800
0800
0800
0800
0800
0800
0800
0800
1000
1000
2000
4000
0000
ENDCHAR

STARTCHAR C2a
ENCODING 42
SWIDTH 1000 0
DWIDTH 9 0
BBX 9 18 0 -3
BITMAP
0000
0000
0000
0000
1000
3800
9200
D600
3800
D600
9200
3800
1000
0000
0000
0000
0000
0000
ENDCHAR

STARTCHAR C2b
ENCODING 43
SWIDTH 1000 0
DWIDTH 9 0
BBX 9 18 0 -3
BITMAP
0000
0000
0000
0000
0000
1000
1000
1000
FE00
1000
1000
1000
0000
0000
0000
0000
0000
0000
ENDCHAR

STARTCHAR C2c
ENCODING 44
SWIDTH 1000 0
DWIDTH 9 0
BBX 9 18 0 -3
BITMAP
0000
0000
0000
0000
0000
0000
0000
0000
0000
0000
0000
0000
E000
E000
E000
6000
C000
0000
ENDCHAR

STARTCHAR C2d
ENCODING 45
SWIDTH 1000 0
DWIDTH 9 0
BBX 9 18 0 -3
BITMAP
0000
0000
0000
0000
0000
0000
0000
0000
FE00
0000
0000
0000
0000
0000
0000
0000
0000
0000
ENDCHAR

STARTCHAR C2e
ENCODING 46
SWIDTH 1000 0
DWIDTH 9 0
BBX 9 18 0 -3
BITMAP
0000
0000
0000
0000
0000
0000
0000
0000
0000
0000
0000
0000
0000
E000
E000
E000
0000
0000
ENDCHAR

STARTCHAR C2f
ENCODING 47
SWIDTH 1000 0
DWIDTH 9 0
BBX 9 18 0 -3
BITMAP
0000
0200
0200
0400
0400
0800
0800
0800
1000
1000
1000
2000
2000
4000
4000
8000
8000
0000
ENDCHAR

STARTCHAR C30
ENCODING 48
SWIDTH 1000 0
DWIDTH 9 0
BBX 9 18 0 -3
BITMAP
0000
0000
3000
4800
4800
8400
8400
8400
8400
8400
8400
8400
4800
4800
3000
0000
0000
0000
ENDCHAR

STARTCHAR C31
ENCODING 49
SWIDTH 1000 0
DWIDTH 9 0
BBX 9 18 0 -3
BITMAP
0000
0000
3000
5000
9000
1000
1000
1000
1000
1000
1000
1000
1000
1000
1000
0000
0000
0000
ENDCHAR

STARTCHAR C32
ENCODING 50
SWIDTH 1000 0
DWIDTH 9 0
BBX 9 18 0 -3
BITMAP
0000
0000
3800
4400
8200
8200
0200
0400
0800
1000
2000
4000
4000
8000
FE00
0000
0000
0000
ENDCHAR

STARTCHAR C33
ENCODING 51
SWIDTH 1000 0
DWIDTH 9 0
BBX 9 18 0 -3
BITMAP
0000
0000
3800
4400
8200
8200
0200
0400
3800
0400
0200
8200
8200
4400
3800
0000
0000
0000
ENDCHAR

STARTCHAR C34
ENCODING 52
SWIDTH 1000 0
DWIDTH 9 0
BBX 9 18 0 -3
BITMAP
0000
0000
0800
1800
2800
2800
4800
4800
8800
8800
FE00
0800
0800
0800
0800
0000
0000
0000
ENDCHAR

STARTCHAR C35
ENCODING 53
SWIDTH 1000 0
DWIDTH 9 0
BBX 9 18 0 -3
BITMAP
0000
0000
FC00
8000
8000
8000
B800
C400
8200
0200
0200
8200
8200
4400
3800
0000
0000
0000
ENDCHAR

STARTCHAR C36
ENCODING 54
SWIDTH 1000 0
DWIDTH 9 0
BBX 9 18 0 -3
BITMAP
0000
0000
3800
4400
8200
8200
8000
B800
C400
8200
8200
8200
8200
4400
3800
0000
0000
0000
ENDCHAR

STARTCHAR C37
ENCODING 55
SWIDTH 1000 0
DWIDTH 9 0
BBX 9 18 0 -3
BITMAP
0000
0000
FE00
0200
0200
0400
0400
0400
0800
0800
0800
1000
1000
1000
1000
0000
0000
0000
ENDCHAR

STARTCHAR C38
ENCODING 56
SWIDTH 1000 0
DWIDTH 9 0
BBX 9 18 0 -3
BITMAP
0000
0000
3800
4400
8200
8200
8200
4400
3800
4400
8200
8200
8200
4400
3800
0000
0000
0000
ENDCHAR

STARTCHAR C39
ENCODING 57
SWIDTH 1000 0
DWIDTH 9 0
BBX 9 18 0 -3
BITMAP
0000
0000
3800
4400
8200
8200
8200
8200
4600
3A00
0200
8200
8200
4400
3800
0000
0000
0000
ENDCHAR

STARTCHAR C3a
ENCODING 58
SWIDTH 1000 0
DWIDTH 9 0
BBX 9 18 0 -3
BITMAP
0000
0000
0000
0000
0000
0000
3800
3800
0000
0000
0000
0000
0000
3800
3800
0000
0000
0000
ENDCHAR

STARTCHAR C3b
ENCODING 59
SWIDTH 1000 0
DWIDTH 9 0
BBX 9 18 0 -3
BITMAP
0000
0000
0000
0000
0000
0000
3800
3800
0000
0000
0000
0000
3800
3800
1800
1000
3000
0000
ENDCHAR

STARTCHAR C3c
ENCODING 60
SWIDTH 1000 0
DWIDTH 9 0
BBX 9 18 0 -3
BITMAP
0000
0100
0200
0400
0800
1000
2000
4000
8000
4000
2000
1000
0800
0400
0200
0100
0000
0000
ENDCHAR

STARTCHAR C3d
ENCODING 61
SWIDTH 1000 0
DWIDTH 9 0
BBX 9 18 0 -3
BITMAP
0000
0000
0000
0000
0000
0000
FE00
0000
0000
0000
FE00
0000
0000
0000
0000
0000
0000
0000
ENDCHAR

STARTCHAR C3e
ENCODING 62
SWIDTH 1000 0
DWIDTH 9 0
BBX 9 18 0 -3
BITMAP
0000
8000
4000
2000
1000
0800
0400
0200
0100
0200
0400
0800
1000
2000
4000
8000
0000
0000
ENDCHAR

STARTCHAR C3f
ENCODING 63
SWIDTH 1000 0
DWIDTH 9 0
BBX 9 18 0 -3
BITMAP
0000
0000
3800
4400
8200
8200
8200
0200
0400
0800
1000
1000
0000
0000
1000
1000
1000
0000
ENDCHAR

STARTCHAR C40
ENCODING 64
SWIDTH 1000 0
DWIDTH 9 0
BBX 9 18 0 -3
BITMAP
0000
0000
3C00
4200
8200
9A00
A600
A200
A200
A200
A600
9A00
8000
4200
3C00
0000
0000
0000
ENDCHAR

STARTCHAR C41
ENCODING 65
SWIDTH 1000 0
DWIDTH 9 0
BBX 9 18 0 -3
BITMAP
0000
0000
1000
1000
2800
2800
2800
4400
4400
4400
7C00
8200
8200
8200
8200
0000
0000
0000
ENDCHAR

STARTCHAR C42
ENCODING 66
SWIDTH 1000 0
DWIDTH 9 0
BBX 9 18 0 -3
BITMAP
0000
0000
7800
4400
4200
4200
4200
4400
7800
4400
4200
4200
4200
4200
7C00
0000
0000
0000
ENDCHAR

STARTCHAR C43
ENCODING 67
SWIDTH 1000 0
DWIDTH 9 0
BBX 9 18 0 -3
BITMAP
0000
0000
3800
4400
4200
8200
8000
8000
8000
8000
8000
8200
4200
4400
3800
0000
0000
0000
ENDCHAR

STARTCHAR C44
ENCODING 68
SWIDTH 1000 0
DWIDTH 9 0
BBX 9 18 0 -3
BITMAP
0000
0000
7800
4400
4400
4200
4200
4200
4200
4200
4200
4200
4400
4400
7800
0000
0000
0000
ENDCHAR

STARTCHAR C45
ENCODING 69
SWIDTH 1000 0
DWIDTH 9 0
BBX 9 18 0 -3
BITMAP
0000
0000
7E00
4000
4000
4000
4000
4000
7C00
4000
4000
4000
4000
4000
7E00
0000
0000
0000
ENDCHAR

STARTCHAR C46
ENCODING 70
SWIDTH 1000 0
DWIDTH 9 0
BBX 9 18 0 -3
BITMAP
0000
0000
7E00
4000
4000
4000
4000
4000
7C00
4000
4000
4000
4000
4000
4000
0000
0000
0000
ENDCHAR

STARTCHAR C47
ENCODING 71
SWIDTH 1000 0
DWIDTH 9 0
BBX 9 18 0 -3
BITMAP
0000
0000
3800
4400
4200
8200
8000
8000
8E00
8200
8200
8200
4200
4600
3A00
0000
0000
0000
ENDCHAR

STARTCHAR C48
ENCODING 72
SWIDTH 1000 0
DWIDTH 9 0
BBX 9 18 0 -3
BITMAP
0000
0000
4200
4200
4200
4200
4200
4200
7E00
4200
4200
4200
4200
4200
4200
0000
0000
0000
ENDCHAR

STARTCHAR C49
ENCODING 73
SWIDTH 1000 0
DWIDTH 9 0
BBX 9 18 0 -3
BITMAP
0000
0000
1000
1000
1000
1000
1000
1000
1000
1000
1000
1000
1000
1000
1000
0000
0000
0000
ENDCHAR

STARTCHAR C4a
ENCODING 74
SWIDTH 1000 0
DWIDTH 9 0
BBX 9 18 0 -3
BITMAP
0000
0000
0200
0200
0200
0200
0200
0200
0200
0200
8200
8200
8200
4400
3800
0000
0000
0000
ENDCHAR

STARTCHAR C4b
ENCODING 75
SWIDTH 1000 0
DWIDTH 9 0
BBX 9 18 0 -3
BITMAP
0000
0000
8400
8400
8800
8800
9000
A000
A000
D000
9000
8800
8400
8400
8200
0000
0000
0000
ENDCHAR

STARTCHAR C4c
ENCODING 76
SWIDTH 1000 0
DWIDTH 9 0
BBX 9 18 0 -3
BITMAP
0000
0000
4000
4000
4000
4000
4000
4000
4000
4000
4000
4000
4000
4000
7E00
0000
0000
0000
ENDCHAR

STARTCHAR C4d
ENCODING 77
SWIDTH 1000 0
DWIDTH 9 0
BBX 9 18 0 -3
BITMAP
0000
0000
8200
C600
AA00
AA00
AA00
AA00
9200
9200
9200
8200
8200
8200
8200
0000
0000
0000
ENDCHAR

STARTCHAR C4e
ENCODING 78
SWIDTH 1000 0
DWIDTH 9 0
BBX 9 18 0 -3
BITMAP
0000
0000
8200
C200
A200
A200
A200
9200
9200
9200
8A00
8A00
8A00
8600
8200
0000
0000
0000
ENDCHAR

STARTCHAR C4f
ENCODING 79
SWIDTH 1000 0
DWIDTH 9 0
BBX 9 18 0 -3
BITMAP
0000
0000
3800
4400
4400
8200
8200
8200
8200
8200
8200
8200
4400
4400
3800
0000
0000
0000
ENDCHAR

STARTCHAR C50
ENCODING 80
SWIDTH 1000 0
DWIDTH 9 0
BBX 9 18 0 -3
BITMAP
0000
0000
7800
4400
4200
4200
4200
4200
4400
7800
4000
4000
4000
4000
4000
0000
0000
0000
ENDCHAR

STARTCHAR C51
ENCODING 81
SWIDTH 1000 0
DWIDTH 9 0
BBX 9 18 0 -3
BITMAP
0000
0000
3800
4400
4400
8200
8200
8200
8200
8200
9200
9200
4A00
4C00
3800
0400
0400
0000
ENDCHAR

STARTCHAR C52
ENCODING 82
SWIDTH 1000 0
DWIDTH 9 0
BBX 9 18 0 -3
BITMAP
0000
0000
7800
4400
4200
4200
4200
4400
7800
4800
4400
4400
4400
4200
4200
0000
0000
0000
ENDCHAR

STARTCHAR C53
ENCODING 83
SWIDTH 1000 0
DWIDTH 9 0
BBX 9 18 0 -3
BITMAP
0000
0000
3800
4400
8200
8200
8000
6000
1800
0400
0200
8200
8200
4400
3800
0000
0000
0000
ENDCHAR

STARTCHAR C54
ENCODING 84
SWIDTH 1000 0
DWIDTH 9 0
BBX 9 18 0 -3
BITMAP
0000
0000
FE00
1000
1000
1000
1000
1000
1000
1000
1000
1000
1000
1000
1000
0000
0000
0000
ENDCHAR

STARTCHAR C55
ENCODING 85
SWIDTH 1000 0
DWIDTH 9 0
BBX 9 18 0 -3
BITMAP
0000
0000
4200
4200
4200
4200
4200
4200
4200
4200
4200
4200
4200
4200
3C00
0000
0000
0000
ENDCHAR

STARTCHAR C56
ENCODING 86
SWIDTH 1000 0
DWIDTH 9 0
BBX 9 18 0 -3
BITMAP
0000
0000
8200
8200
8200
8200
4400
4400
4400
4400
2800
2800
2800
1000
1000
0000
0000
0000
ENDCHAR

STARTCHAR C57
ENCODING 87
SWIDTH 1000 0
DWIDTH 9 0
BBX 9 18 0 -3
BITMAP
0000
0000
8200
8200
8200
8200
9200
9200
9200
AA00
AA00
AA00
4400
4400
4400
0000
0000
0000
ENDCHAR

STARTCHAR C58
ENCODING 88
SWIDTH 1000 0
DWIDTH 9 0
BBX 9 18 0 -3
BITMAP
0000
0000
8200
8200
4400
4400
2800
2800
1000
2800
2800
4400
4400
8200
8200
0000
0000
0000
ENDCHAR

STARTCHAR C59
ENCODING 89
SWIDTH 1000 0
DWIDTH 9 0
BBX 9 18 0 -3
BITMAP
0000
0000
8200
8200
4400
4400
4400
2800
2800
1000
1000
1000
1000
1000
1000
0000
0000
0000
ENDCHAR

STARTCHAR C5a
ENCODING 90
SWIDTH 1000 0
DWIDTH 9 0
BBX 9 18 0 -3
BITMAP
0000
0000
FE00
0400
0400
0800
0800
1000
1000
2000
2000
4000
4000
8000
FE00
0000
0000
0000
ENDCHAR

STARTCHAR C5b
ENCODING 91
SWIDTH 1000 0
DWIDTH 9 0
BBX 9 18 0 -3
BITMAP
0000
1C00
1000
1000
1000
1000
1000
1000
1000
1000
1000
1000
1000
1000
1000
1000
1C00
0000
ENDCHAR

STARTCHAR C5c
ENCODING 92
SWIDTH 1000 0
DWIDTH 9 0
BBX 9 18 0 -3
BITMAP
0000
8000
8000
4000
4000
2000
2000
1000
1000
1000
0800
0800
0800
0400
0400
0200
0200
0000
ENDCHAR

STARTCHAR C5d
ENCODING 93
SWIDTH 1000 0
DWIDTH 9 0
BBX 9 18 0 -3
BITMAP
0000
7000
1000
1000
1000
1000
1000
1000
1000
1000
1000
1000
1000
1000
1000
1000
7000
0000
ENDCHAR

STARTCHAR C5e
ENCODING 94
SWIDTH 1000 0
DWIDTH 9 0
BBX 9 18 0 -3
BITMAP
0000
3000
CC00
0000
0000
0000
0000
0000
0000
0000
0000
0000
0000
0000
0000
0000
0000
0000
ENDCHAR

STARTCHAR C5f
ENCODING 95
SWIDTH 1000 0
DWIDTH 9 0
BBX 9 18 0 -3
BITMAP
0000
0000
0000
0000
0000
0000
0000
0000
0000
0000
0000
0000
0000
0000
0000
0000
FF00
0000
ENDCHAR

STARTCHAR C60
ENCODING 96
SWIDTH 1000 0
DWIDTH 9 0
BBX 9 18 0 -3
BITMAP
0000
E000
E000
8000
8000
6000
0000
0000
0000
0000
0000
0000
0000
0000
0000
0000
0000
0000
ENDCHAR

STARTCHAR C61
ENCODING 97
SWIDTH 1000 0
DWIDTH 9 0
BBX 9 18 0 -3
BITMAP
0000
0000
0000
0000
0000
0000
3C00
4200
0200
3E00
4200
8200
8200
8600
7B00
0000
0000
0000
ENDCHAR

STARTCHAR C62
ENCODING 98
SWIDTH 1000 0
DWIDTH 9 0
BBX 9 18 0 -3
BITMAP
0000
0000
4000
4000
4000
4000
5800
6400
4200
4200
4200
4200
4200
6400
5800
0000
0000
0000
ENDCHAR

STARTCHAR C63
ENCODING 99
SWIDTH 1000 0
DWIDTH 9 0
BBX 9 18 0 -3
BITMAP
0000
0000
0000
0000
0000
0000
3800
4400
8200
8000
8000
8000
8200
4400
3800
0000
0000
0000
ENDCHAR

STARTCHAR C64
ENCODING 100
SWIDTH 1000 0
DWIDTH 9 0
BBX 9 18 0 -3
BITMAP
0000
0000
0400
0400
0400
0400
3400
4C00
8400
8400
8400
8400
8400
4C00
3400
0000
0000
0000
ENDCHAR

STARTCHAR C65
ENCODING 101
SWIDTH 1000 0
DWIDTH 9 0
BBX 9 18 0 -3
BITMAP
0000
0000
0000
0000
0000
0000
3800
4400
8200
FE00
8000
8000
8200
4400
3800
0000
0000
0000
ENDCHAR

STARTCHAR C66
ENCODING 102
SWIDTH 1000 0
DWIDTH 9 0
BBX 9 18 0 -3
BITMAP
0000
0000
0E00
1000
1000
1000
FE00
1000
1000
1000
1000
1000
1000
1000
1000
0000
0000
0000
ENDCHAR

STARTCHAR C67
ENCODING 103
SWIDTH 1000 0
DWIDTH 9 0
BBX 9 18 0 -3
BITMAP
0000
0000
0000
0000
0000
0000
7400
8C00
8400
8400
8400
8400
7C00
0400
8400
8400
7800
0000
ENDCHAR

STARTCHAR C68
ENCODING 104
SWIDTH 1000 0
DWIDTH 9 0
BBX 9 18 0 -3
BITMAP
0000
0000
4000
4000
4000
4000
5C00
6200
4200
4200
4200
4200
4200
4200
4200
0000
0000
0000
ENDCHAR

STARTCHAR C69
ENCODING 105
SWIDTH 1000 0
DWIDTH 9 0
BBX 9 18 0 -3
BITMAP
0000
0000
1000
1000
0000
0000
1000
1000
1000
1000
1000
1000
1000
1000
1000
0000
0000
0000
ENDCHAR

STARTCHAR C6a
ENCODING 106
SWIDTH 1000 0
DWIDTH 9 0
BBX 9 18 0 -3
BITMAP
0000
0000
0400
0400
0000
0000
0400
0400
0400
0400
0400
0400
0400
0400
0400
0800
7000
0000
ENDCHAR

STARTCHAR C6b
ENCODING 107
SWIDTH 1000 0
DWIDTH 9 0
BBX 9 18 0 -3
BITMAP
0000
0000
4000
4000
4000
4000
4200
4400
4800
5000
6800
4800
4400
4400
4200
0000
0000
0000
ENDCHAR

STARTCHAR C6c
ENCODING 108
SWIDTH 1000 0
DWIDTH 9 0
BBX 9 18 0 -3
BITMAP
0000
0000
1000
1000
1000
1000
1000
1000
1000
1000
1000
1000
1000
1000
1000
0000
0000
0000
ENDCHAR

STARTCHAR C6d
ENCODING 109
SWIDTH 1000 0
DWIDTH 9 0
BBX 9 18 0 -3
BITMAP
0000
0000
0000
0000
0000
0000
EC00
9200
9200
9200
9200
9200
9200
9200
9200
0000
0000
0000
ENDCHAR

STARTCHAR C6e
ENCODING 110
SWIDTH 1000 0
DWIDTH 9 0
BBX 9 18 0 -3
BITMAP
0000
0000
0000
0000
0000
0000
B800
C400
8400
8400
8400
8400
8400
8400
8400
0000
0000
0000
ENDCHAR

STARTCHAR C6f
ENCODING 111
SWIDTH 1000 0
DWIDTH 9 0
BBX 9 18 0 -3
BITMAP
0000
0000
0000
0000
0000
0000
3800
4400
8200
8200
8200
8200
8200
4400
3800
0000
0000
0000
ENDCHAR

STARTCHAR C70
ENCODING 112
SWIDTH 1000 0
DWIDTH 9 0
BBX 9 18 0 -3
BITMAP
0000
0000
0000
0000
0000
0000
5800
6400
4200
4200
4200
4200
6400
5800
4000
4000
4000
0000
ENDCHAR

STARTCHAR C71
ENCODING 113
SWIDTH 1000 0
DWIDTH 9 0
BBX 9 18 0 -3
BITMAP
0000
0000
0000
0000
0000
0000
3400
4C00
8400
8400
8400
8400
4C00
3400
0400
0400
0400
0000
ENDCHAR

STARTCHAR C72
ENCODING 114
SWIDTH 1000 0
DWIDTH 9 0
BBX 9 18 0 -3
BITMAP
0000
0000
0000
0000
0000
0000
2600
2800
3000
2000
2000
2000
2000
2000
2000
0000
0000
0000
ENDCHAR

STARTCHAR C73
ENCODING 115
SWIDTH 1000 0
DWIDTH 9 0
BBX 9 18 0 -3
BITMAP
0000
0000
0000
0000
0000
0000
7800
8400
8400
8000
7800
0400
8200
8200
7C00
0000
0000
0000
ENDCHAR

STARTCHAR C74
ENCODING 116
SWIDTH 1000 0
DWIDTH 9 0
BBX 9 18 0 -3
BITMAP
0000
0000
0000
2000
2000
2000
FC00
2000
2000
2000
2000
2000
2000
2000
1C00
0000
0000
0000
ENDCHAR

STARTCHAR C75
ENCODING 117
SWIDTH 1000 0
DWIDTH 9 0
BBX 9 18 0 -3
BITMAP
0000
0000
0000
0000
0000
0000
8400
8400
8400
8400
8400
8400
8400
8C00
7400
0000
0000
0000
ENDCHAR

STARTCHAR C76
ENCODING 118
SWIDTH 1000 0
DWIDTH 9 0
BBX 9 18 0 -3
BITMAP
0000
0000
0000
0000
0000
0000
8200
8200
8200
4400
4400
2800
2800
1000
1000
0000
0000
0000
ENDCHAR

STARTCHAR C77
ENCODING 119
SWIDTH 1000 0
DWIDTH 9 0
BBX 9 18 0 -3
BITMAP
0000
0000
0000
0000
0000
0000
8200
8200
9200
9200
9200
9200
AA00
AA00
4400
0000
0000
0000
ENDCHAR

STARTCHAR C78
ENCODING 120
SWIDTH 1000 0
DWIDTH 9 0
BBX 9 18 0 -3
BITMAP
0000
0000
0000
0000
0000
0000
8200
8200
4400
2800
1000
2800
4400
8200
8200
0000
0000
0000
ENDCHAR

STARTCHAR C79
ENCODING 121
SWIDTH 1000 0
DWIDTH 9 0
BBX 9 18 0 -3
BITMAP
0000
0000
0000
0000
0000
0000
8200
8200
4400
4400
2800
2800
1000
1000
2000
2000
C000
0000
ENDCHAR

STARTCHAR C7a
ENCODING 122
SWIDTH 1000 0
DWIDTH 9 0
BBX 9 18 0 -3
BITMAP
0000
0000
0000
0000
0000
0000
7E00
0400
0800
0800
1000
1000
2000
4000
FE00
0000
0000
0000
ENDCHAR

STARTCHAR C7b
ENCODING 123
SWIDTH 1000 0
DWIDTH 9 0
BBX 9 18 0 -3
BITMAP
0000
0C00
1000
1000
1000
1000
1000
2000
4000
2000
1000
1000
1000
1000
1000
1000
0C00
0000
ENDCHAR

STARTCHAR C7c
ENCODING 124
SWIDTH 1000 0
DWIDTH 9 0
BBX 9 18 0 -3
BITMAP
0000
1000
1000
1000
1000
1000
1000
1000
1000
1000
1000
1000
1000
1000
1000
1000
1000
0000
ENDCHAR

STARTCHAR C7d
ENCODING 125
SWIDTH 1000 0
DWIDTH 9 0
BBX 9 18 0 -3
BITMAP
0000
6000
1000
1000
1000
1000
1000
0800
0400
0800
1000
1000
1000
1000
1000
1000
6000
0000
ENDCHAR

STARTCHAR C7e
ENCODING 126
SWIDTH 1000 0
DWIDTH 9 0
BBX 9 18 0 -3
BITMAP
0000
3200
4C00
0000
0000
0000
0000
0000
0000
0000
0000
0000
0000
0000
0000
0000
0000
0000
ENDCHAR

STARTCHAR C80
ENCODING 128
SWIDTH 1000 0
DWIDTH 9 0
BBX 9 18 0 -3
BITMAP
0000
0000
0000
0000
0000
0000
0000
0000
0000
0000
0000
0000
0000
0000
0000
0000
0000
0000
ENDCHAR

STARTCHAR C81
ENCODING 129
SWIDTH 1000 0
DWIDTH 9 0
BBX 9 18 0 -3
BITMAP
0000
0000
0000
0000
0000
0000
0000
0000
0000
0000
0000
0000
0000
0000
0000
0000
0000
0000
ENDCHAR

STARTCHAR C82
ENCODING 130
SWIDTH 1000 0
DWIDTH 9 0
BBX 9 18 0 -3
BITMAP
0000
0000
0000
0000
0000
0000
0000
0000
0000
0000
0000
0000
0000
0000
0000
0000
0000
0000
ENDCHAR

STARTCHAR C83
ENCODING 131
SWIDTH 1000 0
DWIDTH 9 0
BBX 9 18 0 -3
BITMAP
0000
0000
0000
0000
0000
0000
0000
0000
0000
0000
0000
0000
0000
0000
0000
0000
0000
0000
ENDCHAR

STARTCHAR C84
ENCODING 132
SWIDTH 1000 0
DWIDTH 9 0
BBX 9 18 0 -3
BITMAP
0000
0000
0000
0000
0000
0000
0000
0000
0000
0000
0000
0000
0000
0000
0000
0000
0000
0000
ENDCHAR

STARTCHAR C85
ENCODING 133
SWIDTH 1000 0
DWIDTH 9 0
BBX 9 18 0 -3
BITMAP
0000
0000
0000
0000
0000
0000
0000
0000
0000
0000
0000
0000
0000
0000
0000
0000
0000
0000
ENDCHAR

STARTCHAR C86
ENCODING 134
SWIDTH 1000 0
DWIDTH 9 0
BBX 9 18 0 -3
BITMAP
0000
0000
0000
0000
0000
0000
0000
0000
0000
0000
0000
0000
0000
0000
0000
0000
0000
0000
ENDCHAR

STARTCHAR C87
ENCODING 135
SWIDTH 1000 0
DWIDTH 9 0
BBX 9 18 0 -3
BITMAP
0000
0000
0000
0000
0000
0000
0000
0000
0000
0000
0000
0000
0000
0000
0000
0000
0000
0000
ENDCHAR

STARTCHAR C88
ENCODING 136
SWIDTH 1000 0
DWIDTH 9 0
BBX 9 18 0 -3
BITMAP
0000
0000
0000
0000
0000
0000
0000
0000
0000
0000
0000
0000
0000
0000
0000
0000
0000
0000
ENDCHAR

STARTCHAR C89
ENCODING 137
SWIDTH 1000 0
DWIDTH 9 0
BBX 9 18 0 -3
BITMAP
0000
0000
0000
0000
0000
0000
0000
0000
0000
0000
0000
0000
0000
0000
0000
0000
0000
0000
ENDCHAR

STARTCHAR C8a
ENCODING 138
SWIDTH 1000 0
DWIDTH 9 0
BBX 9 18 0 -3
BITMAP
0000
0000
0000
0000
0000
0000
0000
0000
0000
0000
0000
0000
0000
0000
0000
0000
0000
0000
ENDCHAR

STARTCHAR C8b
ENCODING 139
SWIDTH 1000 0
DWIDTH 9 0
BBX 9 18 0 -3
BITMAP
0000
0000
0000
0000
0000
0000
0000
0000
0000
0000
0000
0000
0000
0000
0000
0000
0000
0000
ENDCHAR

STARTCHAR C8c
ENCODING 140
SWIDTH 1000 0
DWIDTH 9 0
BBX 9 18 0 -3
BITMAP
0000
0000
0000
0000
0000
0000
0000
0000
0000
0000
0000
0000
0000
0000
0000
0000
0000
0000
ENDCHAR

STARTCHAR C8d
ENCODING 141
SWIDTH 1000 0
DWIDTH 9 0
BBX 9 18 0 -3
BITMAP
0000
0000
0000
0000
0000
0000
0000
0000
0000
0000
0000
0000
0000
0000
0000
0000
0000
0000
ENDCHAR

STARTCHAR C8e
ENCODING 142
SWIDTH 1000 0
DWIDTH 9 0
BBX 9 18 0 -3
BITMAP
0000
0000
0000
0000
0000
0000
0000
0000
0000
0000
0000
0000
0000
0000
0000
0000
0000
0000
ENDCHAR

STARTCHAR C8f
ENCODING 143
SWIDTH 1000 0
DWIDTH 9 0
BBX 9 18 0 -3
BITMAP
0000
0000
0000
0000
0000
0000
0000
0000
0000
0000
0000
0000
0000
0000
0000
0000
0000
0000
ENDCHAR

STARTCHAR C90
ENCODING 144
SWIDTH 1000 0
DWIDTH 9 0
BBX 9 18 0 -3
BITMAP
0000
0000
0000
0000
0000
0000
0000
0000
0000
0000
0000
0000
0000
0000
0000
0000
0000
0000
ENDCHAR

STARTCHAR C91
ENCODING 145
SWIDTH 1000 0
DWIDTH 9 0
BBX 9 18 0 -3
BITMAP
0000
0000
0000
0000
0000
0000
0000
0000
0000
0000
0000
0000
0000
0000
0000
0000
0000
0000
ENDCHAR

STARTCHAR C92
ENCODING 146
SWIDTH 1000 0
DWIDTH 9 0
BBX 9 18 0 -3
BITMAP
0000
0000
0000
0000
0000
0000
0000
0000
0000
0000
0000
0000
0000
0000
0000
0000
0000
0000
ENDCHAR

STARTCHAR C93
ENCODING 147
SWIDTH 1000 0
DWIDTH 9 0
BBX 9 18 0 -3
BITMAP
0000
0000
0000
0000
0000
0000
0000
0000
0000
0000
0000
0000
0000
0000
0000
0000
0000
0000
ENDCHAR

STARTCHAR C94
ENCODING 148
SWIDTH 1000 0
DWIDTH 9 0
BBX 9 18 0 -3
BITMAP
0000
0000
0000
0000
0000
0000
0000
0000
0000
0000
0000
0000
0000
0000
0000
0000
0000
0000
ENDCHAR

STARTCHAR C95
ENCODING 149
SWIDTH 1000 0
DWIDTH 9 0
BBX 9 18 0 -3
BITMAP
0000
0000
0000
0000
0000
0000
0000
0000
0000
0000
0000
0000
0000
0000
0000
0000
0000
0000
ENDCHAR

STARTCHAR C96
ENCODING 150
SWIDTH 1000 0
DWIDTH 9 0
BBX 9 18 0 -3
BITMAP
0000
0000
0000
0000
0000
0000
0000
0000
0000
0000
0000
0000
0000
0000
0000
0000
0000
0000
ENDCHAR

STARTCHAR C97
ENCODING 151
SWIDTH 1000 0
DWIDTH 9 0
BBX 9 18 0 -3
BITMAP
0000
0000
0000
0000
0000
0000
0000
0000
0000
0000
0000
0000
0000
0000
0000
0000
0000
0000
ENDCHAR

STARTCHAR C98
ENCODING 152
SWIDTH 1000 0
DWIDTH 9 0
BBX 9 18 0 -3
BITMAP
0000
0000
0000
0000
0000
0000
0000
0000
0000
0000
0000
0000
0000
0000
0000
0000
0000
0000
ENDCHAR

STARTCHAR C99
ENCODING 153
SWIDTH 1000 0
DWIDTH 9 0
BBX 9 18 0 -3
BITMAP
0000
0000
0000
0000
0000
0000
0000
0000
0000
0000
0000
0000
0000
0000
0000
0000
0000
0000
ENDCHAR

STARTCHAR C9a
ENCODING 154
SWIDTH 1000 0
DWIDTH 9 0
BBX 9 18 0 -3
BITMAP
0000
0000
0000
0000
0000
0000
0000
0000
0000
0000
0000
0000
0000
0000
0000
0000
0000
0000
ENDCHAR

STARTCHAR C9b
ENCODING 155
SWIDTH 1000 0
DWIDTH 9 0
BBX 9 18 0 -3
BITMAP
0000
0000
0000
0000
0000
0000
0000
0000
0000
0000
0000
0000
0000
0000
0000
0000
0000
0000
ENDCHAR

STARTCHAR C9c
ENCODING 156
SWIDTH 1000 0
DWIDTH 9 0
BBX 9 18 0 -3
BITMAP
0000
0000
0000
0000
0000
0000
0000
0000
0000
0000
0000
0000
0000
0000
0000
0000
0000
0000
ENDCHAR

STARTCHAR C9d
ENCODING 157
SWIDTH 1000 0
DWIDTH 9 0
BBX 9 18 0 -3
BITMAP
0000
0000
0000
0000
0000
0000
0000
0000
0000
0000
0000
0000
0000
0000
0000
0000
0000
0000
ENDCHAR

STARTCHAR C9e
ENCODING 158
SWIDTH 1000 0
DWIDTH 9 0
BBX 9 18 0 -3
BITMAP
0000
0000
0000
0000
0000
0000
0000
0000
0000
0000
0000
0000
0000
0000
0000
0000
0000
0000
ENDCHAR

STARTCHAR C9f
ENCODING 159
SWIDTH 1000 0
DWIDTH 9 0
BBX 9 18 0 -3
BITMAP
0000
0000
0000
0000
0000
0000
0000
0000
0000
0000
0000
0000
0000
0000
0000
0000
0000
0000
ENDCHAR

STARTCHAR Ca0
ENCODING 160
SWIDTH 1000 0
DWIDTH 9 0
BBX 9 18 0 -3
BITMAP
0000
0000
0000
0000
0000
0000
0000
0000
0000
0000
0000
0000
0000
0000
0000
0000
0000
0000
ENDCHAR

STARTCHAR Ca1
ENCODING 161
SWIDTH 1000 0
DWIDTH 9 0
BBX 9 18 0 -3
BITMAP
0000
0000
1000
1000
0000
1000
1000
1000
1000
1000
1000
1000
1000
1000
1000
0000
0000
0000
ENDCHAR

STARTCHAR Ca2
ENCODING 162
SWIDTH 1000 0
DWIDTH 9 0
BBX 9 18 0 -3
BITMAP
0000
0000
1000
1000
7800
8400
8000
8000
8000
8000
8000
8400
8400
7800
1000
1000
0000
0000
ENDCHAR

STARTCHAR Ca3
ENCODING 163
SWIDTH 1000 0
DWIDTH 9 0
BBX 9 18 0 -3
BITMAP
0000
0000
1800
2400
2400
2400
2000
2000
2000
F800
2000
2000
2000
7200
CC00
0000
0000
0000
ENDCHAR

STARTCHAR Ca4
ENCODING 164
SWIDTH 1000 0
DWIDTH 9 0
BBX 9 18 0 -3
BITMAP
0000
0000
0000
0000
0000
8200
4400
3800
4400
4400
4400
3800
4400
8200
0000
0000
0000
0000
ENDCHAR

STARTCHAR Ca5
ENCODING 165
SWIDTH 1000 0
DWIDTH 9 0
BBX 9 18 0 -3
BITMAP
0000
0000
8200
8200
4400
4400
2800
FE00
1000
1000
FE00
1000
1000
1000
1000
1000
0000
0000
ENDCHAR

STARTCHAR Ca6
ENCODING 166
SWIDTH 1000 0
DWIDTH 9 0
BBX 9 18 0 -3
BITMAP
0000
0000
1000
1000
1000
1000
1000
1000
0000
0000
1000
1000
1000
1000
1000
1000
0000
0000
ENDCHAR

STARTCHAR Ca7
ENCODING 167
SWIDTH 1000 0
DWIDTH 9 0
BBX 9 18 0 -3
BITMAP
0000
0000
0000
7800
8400
8400
8000
7800
8400
8400
7800
0400
8400
8400
7800
0000
0000
0000
ENDCHAR

STARTCHAR Ca8
ENCODING 168
SWIDTH 1000 0
DWIDTH 9 0
BBX 9 18 0 -3
BITMAP
0000
0000
2400
2400
0000
0000
0000
0000
0000
0000
0000
0000
0000
0000
0000
0000
0000
0000
ENDCHAR

STARTCHAR Ca9
ENCODING 169
SWIDTH 1000 0
DWIDTH 9 0
BBX 9 18 0 -3
BITMAP
0000
0000
0000
0000
3800
4400
8200
BA00
A200
A200
BA00
8200
4400
3800
0000
0000
0000
0000
ENDCHAR

STARTCHAR Caa
ENCODING 170
SWIDTH 1000 0
DWIDTH 9 0
BBX 9 18 0 -3
BITMAP
0000
3800
0400
0400
3C00
4400
4400
3C00
0000
7C00
0000
0000
0000
0000
0000
0000
0000
0000
ENDCHAR

STARTCHAR Cab
ENCODING 171
SWIDTH 1000 0
DWIDTH 9 0
BBX 9 18 0 -3
BITMAP
0000
0000
0000
0000
0000
0000
1200
2400
4800
9000
4800
2400
1200
0000
0000
0000
0000
0000
ENDCHAR

STARTCHAR Cac
ENCODING 172
SWIDTH 1000 0
DWIDTH 9 0
BBX 9 18 0 -3
BITMAP
0000
0000
0000
0000
0000
0000
0000
0000
FE00
0200
0200
0000
0000
0000
0000
0000
0000
0000
ENDCHAR

STARTCHAR Cad
ENCODING 173
SWIDTH 1000 0
DWIDTH 9 0
BBX 9 18 0 -3
BITMAP
0000
0000
0000
0000
0000
0000
0000
0000
7E00
0000
0000
0000
0000
0000
0000
0000
0000
0000
ENDCHAR

STARTCHAR Cae
ENCODING 174
SWIDTH 1000 0
DWIDTH 9 0
BBX 9 18 0 -3
BITMAP
0000
0000
0000
3800
4400
8200
BA00
AA00
BA00
B200
AA00
AA00
8200
4400
3800
0000
0000
0000
ENDCHAR

STARTCHAR Caf
ENCODING 175
SWIDTH 1000 0
DWIDTH 9 0
BBX 9 18 0 -3
BITMAP
0000
0000
FE00
0000
0000
0000
0000
0000
0000
0000
0000
0000
0000
0000
0000
0000
0000
0000
ENDCHAR

STARTCHAR Cb0
ENCODING 176
SWIDTH 1000 0
DWIDTH 9 0
BBX 9 18 0 -3
BITMAP
0000
6000
9000
9000
6000
0000
0000
0000
0000
0000
0000
0000
0000
0000
0000
0000
0000
0000
ENDCHAR

STARTCHAR Cb1
ENCODING 177
SWIDTH 1000 0
DWIDTH 9 0
BBX 9 18 0 -3
BITMAP
0000
0000
1000
1000
1000
FE00
1000
1000
1000
0000
0000
FE00
0000
0000
0000
0000
0000
0000
ENDCHAR

STARTCHAR Cb2
ENCODING 178
SWIDTH 1000 0
DWIDTH 9 0
BBX 9 18 0 -3
BITMAP
0000
3000
4800
0800
1000
2000
4000
7800
0000
0000
0000
0000
0000
0000
0000
0000
0000
0000
ENDCHAR

STARTCHAR Cb3
ENCODING 179
SWIDTH 1000 0
DWIDTH 9 0
BBX 9 18 0 -3
BITMAP
0000
3000
4800
0800
1000
0800
4800
3000
0000
0000
0000
0000
0000
0000
0000
0000
0000
0000
ENDCHAR

STARTCHAR Cb4
ENCODING 180
SWIDTH 1000 0
DWIDTH 9 0
BBX 9 18 0 -3
BITMAP
0000
0000
1800
2000
0000
0000
0000
0000
0000
0000
0000
0000
0000
0000
0000
0000
0000
0000
ENDCHAR

STARTCHAR Cb5
ENCODING 181
SWIDTH 1000 0
DWIDTH 9 0
BBX 9 18 0 -3
BITMAP
0000
0000
0000
0000
0000
0000
0000
0900
0900
1200
1200
2400
2400
5B00
8000
0000
0000
0000
ENDCHAR

STARTCHAR Cb6
ENCODING 182
SWIDTH 1000 0
DWIDTH 9 0
BBX 9 18 0 -3
BITMAP
0000
0000
3E00
7400
F400
F400
F400
7400
3400
1400
1400
1400
1400
1400
1400
1400
0000
0000
ENDCHAR

STARTCHAR Cb7
ENCODING 183
SWIDTH 1000 0
DWIDTH 9 0
BBX 9 18 0 -3
BITMAP
0000
0000
0000
0000
0000
0000
0000
3000
3000
0000
0000
0000
0000
0000
0000
0000
0000
0000
ENDCHAR

STARTCHAR Cb8
ENCODING 184
SWIDTH 1000 0
DWIDTH 9 0
BBX 9 18 0 -3
BITMAP
0000
0000
0000
0000
0000
0000
0000
0000
0000
0000
0000
0000
0000
0000
0000
0C00
1000
0000
ENDCHAR

STARTCHAR Cb9
ENCODING 185
SWIDTH 1000 0
DWIDTH 9 0
BBX 9 18 0 -3
BITMAP
0000
2000
6000
2000
2000
2000
2000
7000
0000
0000
0000
0000
0000
0000
0000
0000
0000
0000
ENDCHAR

STARTCHAR Cba
ENCODING 186
SWIDTH 1000 0
DWIDTH 9 0
BBX 9 18 0 -3
BITMAP
0000
3800
4400
4400
4400
4400
4400
3800
0000
7C00
0000
0000
0000
0000
0000
0000
0000
0000
ENDCHAR

STARTCHAR Cbb
ENCODING 187
SWIDTH 1000 0
DWIDTH 9 0
BBX 9 18 0 -3
BITMAP
0000
0000
0000
0000
0000
9000
4800
2400
1200
2400
4800
9000
0000
0000
0000
0000
0000
0000
ENDCHAR

STARTCHAR Cbc
ENCODING 188
SWIDTH 1000 0
DWIDTH 9 0
BBX 9 18 0 -3
BITMAP
0000
0000
4000
C000
4000
4000
4400
E800
1000
2400
4C00
9400
2400
3E00
0400
0000
0000
0000
ENDCHAR

STARTCHAR Cbd
ENCODING 189
SWIDTH 1000 0
DWIDTH 9 0
BBX 9 18 0 -3
BITMAP
0000
0000
4000
C000
4000
4000
4400
E800
1000
2C00
5200
8200
0400
0800
1E00
0000
0000
0000
ENDCHAR

STARTCHAR Cbe
ENCODING 190
SWIDTH 1000 0
DWIDTH 9 0
BBX 9 18 0 -3
BITMAP
0000
0000
6000
1000
6000
1000
9400
6800
1000
2400
4C00
9400
2400
3E00
0400
0000
0000
0000
ENDCHAR

STARTCHAR Cbf
ENCODING 191
SWIDTH 1000 0
DWIDTH 9 0
BBX 9 18 0 -3
BITMAP
0000
0000
1000
1000
0000
1000
1000
1000
2000
4000
4000
4000
4400
4400
3800
0000
0000
0000
ENDCHAR

STARTCHAR Cc0
ENCODING 192
SWIDTH 1000 0
DWIDTH 9 0
BBX 9 18 0 -3
BITMAP
0000
3000
0800
0000
1000
2800
2800
4400
4400
8200
FE00
8200
8200
8200
8200
0000
0000
0000
ENDCHAR

STARTCHAR Cc1
ENCODING 193
SWIDTH 1000 0
DWIDTH 9 0
BBX 9 18 0 -3
BITMAP
0000
1800
2000
0000
1000
2800
2800
4400
4400
8200
FE00
8200
8200
8200
8200
0000
0000
0000
ENDCHAR

STARTCHAR Cc2
ENCODING 194
SWIDTH 1000 0
DWIDTH 9 0
BBX 9 18 0 -3
BITMAP
0000
1000
2800
0000
1000
2800
2800
4400
4400
8200
FE00
8200
8200
8200
8200
0000
0000
0000
ENDCHAR

STARTCHAR Cc3
ENCODING 195
SWIDTH 1000 0
DWIDTH 9 0
BBX 9 18 0 -3
BITMAP
0000
7200
8C00
0000
1000
2800
2800
4400
4400
8200
FE00
8200
8200
8200
8200
0000
0000
0000
ENDCHAR

STARTCHAR Cc4
ENCODING 196
SWIDTH 1000 0
DWIDTH 9 0
BBX 9 18 0 -3
BITMAP
0000
2800
2800
0000
1000
2800
2800
4400
4400
8200
FE00
8200
8200
8200
8200
0000
0000
0000
ENDCHAR

STARTCHAR Cc5
ENCODING 197
SWIDTH 1000 0
DWIDTH 9 0
BBX 9 18 0 -3
BITMAP
0000
1000
1000
0000
1000
2800
2800
4400
4400
8200
FE00
8200
8200
8200
8200
0000
0000
0000
ENDCHAR

STARTCHAR Cc6
ENCODING 198
SWIDTH 1000 0
DWIDTH 9 0
BBX 9 18 0 -3
BITMAP
0000
0000
1E00
2800
2800
4800
4800
8800
8E00
F800
8800
8800
8800
8800
8E00
0000
0000
0000
ENDCHAR

STARTCHAR Cc7
ENCODING 199
SWIDTH 1000 0
DWIDTH 9 0
BBX 9 18 0 -3
BITMAP
0000
0000
3800
4400
8200
8200
8000
8000
8000
8000
8000
8200
8200
4400
3800
0400
3800
0000
ENDCHAR

STARTCHAR Cc8
ENCODING 200
SWIDTH 1000 0
DWIDTH 9 0
BBX 9 18 0 -3
BITMAP
0000
3000
0800
0000
FE00
8000
8000
8000
8000
FC00
8000
8000
8000
8000
FE00
0000
0000
0000
ENDCHAR

STARTCHAR Cc9
ENCODING 201
SWIDTH 1000 0
DWIDTH 9 0
BBX 9 18 0 -3
BITMAP
0000
1800
2000
0000
FE00
8000
8000
8000
8000
FC00
8000
8000
8000
8000
FE00
0000
0000
0000
ENDCHAR

STARTCHAR Cca
ENCODING 202
SWIDTH 1000 0
DWIDTH 9 0
BBX 9 18 0 -3
BITMAP
0000
1000
2800
0000
FE00
8000
8000
8000
8000
FC00
8000
8000
8000
8000
FE00
0000
0000
0000
ENDCHAR

STARTCHAR Ccb
ENCODING 203
SWIDTH 1000 0
DWIDTH 9 0
BBX 9 18 0 -3
BITMAP
0000
2800
2800
0000
FE00
8000
8000
8000
8000
FC00
8000
8000
8000
8000
FE00
0000
0000
0000
ENDCHAR

STARTCHAR Ccc
ENCODING 204
SWIDTH 1000 0
DWIDTH 9 0
BBX 9 18 0 -3
BITMAP
0000
3000
0800
0000
3800
1000
1000
1000
1000
1000
1000
1000
1000
1000
3800
0000
0000
0000
ENDCHAR

STARTCHAR Ccd
ENCODING 205
SWIDTH 1000 0
DWIDTH 9 0
BBX 9 18 0 -3
BITMAP
0000
1800
2000
0000
3800
1000
1000
1000
1000
1000
1000
1000
1000
1000
3800
0000
0000
0000
ENDCHAR

STARTCHAR Cce
ENCODING 206
SWIDTH 1000 0
DWIDTH 9 0
BBX 9 18 0 -3
BITMAP
0000
1000
2800
0000
3800
1000
1000
1000
1000
1000
1000
1000
1000
1000
3800
0000
0000
0000
ENDCHAR

STARTCHAR Ccf
ENCODING 207
SWIDTH 1000 0
DWIDTH 9 0
BBX 9 18 0 -3
BITMAP
0000
2800
2800
0000
3800
1000
1000
1000
1000
1000
1000
1000
1000
1000
3800
0000
0000
0000
ENDCHAR

STARTCHAR Cd0
ENCODING 208
SWIDTH 1000 0
DWIDTH 9 0
BBX 9 18 0 -3
BITMAP
0000
0000
0000
7800
2400
2200
2200
2200
7200
2200
2200
2200
2200
2400
7800
0000
0000
0000
ENDCHAR

STARTCHAR Cd1
ENCODING 209
SWIDTH 1000 0
DWIDTH 9 0
BBX 9 18 0 -3
BITMAP
0000
7200
8C00
0000
C200
C200
A200
A200
9200
9200
8A00
8A00
8600
8600
8200
0000
0000
0000
ENDCHAR

STARTCHAR Cd2
ENCODING 210
SWIDTH 1000 0
DWIDTH 9 0
BBX 9 18 0 -3
BITMAP
0000
3000
0800
0000
3800
4400
8200
8200
8200
8200
8200
8200
8200
4400
3800
0000
0000
0000
ENDCHAR

STARTCHAR Cd3
ENCODING 211
SWIDTH 1000 0
DWIDTH 9 0
BBX 9 18 0 -3
BITMAP
0000
1800
2000
0000
3800
4400
8200
8200
8200
8200
8200
8200
8200
4400
3800
0000
0000
0000
ENDCHAR

STARTCHAR Cd4
ENCODING 212
SWIDTH 1000 0
DWIDTH 9 0
BBX 9 18 0 -3
BITMAP
0000
1000
2800
0000
3800
4400
8200
8200
8200
8200
8200
8200
8200
4400
3800
0000
0000
0000
ENDCHAR

STARTCHAR Cd5
ENCODING 213
SWIDTH 1000 0
DWIDTH 9 0
BBX 9 18 0 -3
BITMAP
0000
7200
8C00
0000
3800
4400
8200
8200
8200
8200
8200
8200
8200
4400
3800
0000
0000
0000
ENDCHAR

STARTCHAR Cd6
ENCODING 214
SWIDTH 1000 0
DWIDTH 9 0
BBX 9 18 0 -3
BITMAP
0000
2800
2800
0000
3800
4400
8200
8200
8200
8200
8200
8200
8200
4400
3800
0000
0000
0000
ENDCHAR

STARTCHAR Cd7
ENCODING 215
SWIDTH 1000 0
DWIDTH 9 0
BBX 9 18 0 -3
BITMAP
0000
0000
0000
0000
0000
8200
4400
2800
1000
2800
4400
8200
0000
0000
0000
0000
0000
0000
ENDCHAR

STARTCHAR Cd8
ENCODING 216
SWIDTH 1000 0
DWIDTH 9 0
BBX 9 18 0 -3
BITMAP
0000
0000
0200
3A00
4400
8600
8A00
8A00
9200
9200
A200
A200
C200
4400
B800
8000
0000
0000
ENDCHAR

STARTCHAR Cd9
ENCODING 217
SWIDTH 1000 0
DWIDTH 9 0
BBX 9 18 0 -3
BITMAP
0000
3000
0800
0000
8200
8200
8200
8200
8200
8200
8200
8200
8200
4400
3800
0000
0000
0000
ENDCHAR

STARTCHAR Cda
ENCODING 218
SWIDTH 1000 0
DWIDTH 9 0
BBX 9 18 0 -3
BITMAP
0000
1800
2000
0000
8200
8200
8200
8200
8200
8200
8200
8200
8200
4400
3800
0000
0000
0000
ENDCHAR

STARTCHAR Cdb
ENCODING 219
SWIDTH 1000 0
DWIDTH 9 0
BBX 9 18 0 -3
BITMAP
0000
1000
2800
0000
8200
8200
8200
8200
8200
8200
8200
8200
8200
4400
3800
0000
0000
0000
ENDCHAR

STARTCHAR Cdc
ENCODING 220
SWIDTH 1000 0
DWIDTH 9 0
BBX 9 18 0 -3
BITMAP
0000
2800
2800
0000
8200
8200
8200
8200
8200
8200
8200
8200
8200
4400
3800
0000
0000
0000
ENDCHAR

STARTCHAR Cdd
ENCODING 221
SWIDTH 1000 0
DWIDTH 9 0
BBX 9 18 0 -3
BITMAP
0000
1800
2000
0000
8200
8200
4400
4400
2800
1000
1000
1000
1000
1000
1000
0000
0000
0000
ENDCHAR

STARTCHAR Cde
ENCODING 222
SWIDTH 1000 0
DWIDTH 9 0
BBX 9 18 0 -3
BITMAP
0000
0000
0000
7000
2000
3C00
2200
2200
2200
2200
3C00
2000
2000
2000
7000
0000
0000
0000
ENDCHAR

STARTCHAR Cdf
ENCODING 223
SWIDTH 1000 0
DWIDTH 9 0
BBX 9 18 0 -3
BITMAP
0000
0000
1000
2800
2400
2400
2400
2800
2800
2400
2200
2200
2200
2A00
4400
4000
8000
0000
ENDCHAR

STARTCHAR Ce0
ENCODING 224
SWIDTH 1000 0
DWIDTH 9 0
BBX 9 18 0 -3
BITMAP
0000
0000
0000
0000
2000
1000
0000
7800
0400
0400
7C00
8400
8400
8C00
7400
0000
0000
0000
ENDCHAR

STARTCHAR Ce1
ENCODING 225
SWIDTH 1000 0
DWIDTH 9 0
BBX 9 18 0 -3
BITMAP
0000
0000
0000
0000
1000
2000
0000
7800
0400
0400
7C00
8400
8400
8C00
7400
0000
0000
0000
ENDCHAR

STARTCHAR Ce2
ENCODING 226
SWIDTH 1000 0
DWIDTH 9 0
BBX 9 18 0 -3
BITMAP
0000
0000
0000
0000
3000
4800
0000
7800
0400
0400
7C00
8400
8400
8C00
7400
0000
0000
0000
ENDCHAR

STARTCHAR Ce3
ENCODING 227
SWIDTH 1000 0
DWIDTH 9 0
BBX 9 18 0 -3
BITMAP
0000
0000
0000
0000
6400
9800
0000
7800
0400
0400
7C00
8400
8400
8C00
7400
0000
0000
0000
ENDCHAR

STARTCHAR Ce4
ENCODING 228
SWIDTH 1000 0
DWIDTH 9 0
BBX 9 18 0 -3
BITMAP
0000
0000
0000
0000
4800
4800
0000
7800
0400
0400
7C00
8400
8400
8C00
7400
0000
0000
0000
ENDCHAR

STARTCHAR Ce5
ENCODING 229
SWIDTH 1000 0
DWIDTH 9 0
BBX 9 18 0 -3
BITMAP
0000
0000
0000
0000
1000
1000
0000
7800
0400
0400
7C00
8400
8400
8C00
7400
0000
0000
0000
ENDCHAR

STARTCHAR Ce6
ENCODING 230
SWIDTH 1000 0
DWIDTH 9 0
BBX 9 18 0 -3
BITMAP
0000
0000
0000
0000
0000
0000
0000
6C00
1200
1200
7C00
9000
9000
9000
6E00
0000
0000
0000
ENDCHAR

STARTCHAR Ce7
ENCODING 231
SWIDTH 1000 0
DWIDTH 9 0
BBX 9 18 0 -3
BITMAP
0000
0000
0000
0000
0000
0000
0000
7800
8400
8000
8000
8000
8400
8400
7800
0800
3000
0000
ENDCHAR

STARTCHAR Ce8
ENCODING 232
SWIDTH 1000 0
DWIDTH 9 0
BBX 9 18 0 -3
BITMAP
0000
0000
0000
0000
2000
1000
0000
7800
8400
8400
FC00
8000
8000
8000
7800
0000
0000
0000
ENDCHAR

STARTCHAR Ce9
ENCODING 233
SWIDTH 1000 0
DWIDTH 9 0
BBX 9 18 0 -3
BITMAP
0000
0000
0000
0000
1000
2000
0000
7800
8400
8400
FC00
8000
8000
8000
7800
0000
0000
0000
ENDCHAR

STARTCHAR Cea
ENCODING 234
SWIDTH 1000 0
DWIDTH 9 0
BBX 9 18 0 -3
BITMAP
0000
0000
0000
0000
3000
4800
0000
7800
8400
8400
FC00
8000
8000
8000
7800
0000
0000
0000
ENDCHAR

STARTCHAR Ceb
ENCODING 235
SWIDTH 1000 0
DWIDTH 9 0
BBX 9 18 0 -3
BITMAP
0000
0000
0000
0000
4800
4800
0000
7800
8400
8400
FC00
8000
8000
8000
7800
0000
0000
0000
ENDCHAR

STARTCHAR Cec
ENCODING 236
SWIDTH 1000 0
DWIDTH 9 0
BBX 9 18 0 -3
BITMAP
0000
0000
0000
0000
3000
0800
0000
1000
1000
1000
1000
1000
1000
1000
1000
0000
0000
0000
ENDCHAR

STARTCHAR Ced
ENCODING 237
SWIDTH 1000 0
DWIDTH 9 0
BBX 9 18 0 -3
BITMAP
0000
0000
0000
0000
1800
2000
0000
1000
1000
1000
1000
1000
1000
1000
1000
0000
0000
0000
ENDCHAR

STARTCHAR Cee
ENCODING 238
SWIDTH 1000 0
DWIDTH 9 0
BBX 9 18 0 -3
BITMAP
0000
0000
0000
0000
1000
2800
0000
1000
1000
1000
1000
1000
1000
1000
1000
0000
0000
0000
ENDCHAR

STARTCHAR Cef
ENCODING 239
SWIDTH 1000 0
DWIDTH 9 0
BBX 9 18 0 -3
BITMAP
0000
0000
0000
0000
2800
2800
0000
1000
1000
1000
1000
1000
1000
1000
1000
0000
0000
0000
ENDCHAR

STARTCHAR Cf0
ENCODING 240
SWIDTH 1000 0
DWIDTH 9 0
BBX 9 18 0 -3
BITMAP
0000
0000
0000
6000
1400
1800
2800
0400
3C00
4200
4200
4200
4200
4200
3C00
0000
0000
0000
ENDCHAR

STARTCHAR Cf1
ENCODING 241
SWIDTH 1000 0
DWIDTH 9 0
BBX 9 18 0 -3
BITMAP
0000
0000
0000
0000
6400
9800
0000
B800
C400
8400
8400
8400
8400
8400
8400
0000
0000
0000
ENDCHAR

STARTCHAR Cf2
ENCODING 242
SWIDTH 1000 0
DWIDTH 9 0
BBX 9 18 0 -3
BITMAP
0000
0000
0000
0000
2000
1000
0000
7800
8400
8400
8400
8400
8400
8400
7800
0000
0000
0000
ENDCHAR

STARTCHAR Cf3
ENCODING 243
SWIDTH 1000 0
DWIDTH 9 0
BBX 9 18 0 -3
BITMAP
0000
0000
0000
0000
1000
2000
0000
7800
8400
8400
8400
8400
8400
8400
7800
0000
0000
0000
ENDCHAR

STARTCHAR Cf4
ENCODING 244
SWIDTH 1000 0
DWIDTH 9 0
BBX 9 18 0 -3
BITMAP
0000
0000
0000
0000
3000
4800
0000
7800
8400
8400
8400
8400
8400
8400
7800
0000
0000
0000
ENDCHAR

STARTCHAR Cf5
ENCODING 245
SWIDTH 1000 0
DWIDTH 9 0
BBX 9 18 0 -3
BITMAP
0000
0000
0000
0000
6400
9800
0000
7800
8400
8400
8400
8400
8400
8400
7800
0000
0000
0000
ENDCHAR

STARTCHAR Cf6
ENCODING 246
SWIDTH 1000 0
DWIDTH 9 0
BBX 9 18 0 -3
BITMAP
0000
0000
0000
0000
4800
4800
0000
7800
8400
8400
8400
8400
8400
8400
7800
0000
0000
0000
ENDCHAR

STARTCHAR Cf7
ENCODING 247
SWIDTH 1000 0
DWIDTH 9 0
BBX 9 18 0 -3
BITMAP
0000
0000
0000
0000
0000
1800
1800
0000
0000
7E00
0000
0000
1800
1800
0000
0000
0000
0000
ENDCHAR

STARTCHAR Cf8
ENCODING 248
SWIDTH 1000 0
DWIDTH 9 0
BBX 9 18 0 -3
BITMAP
0000
0000
0000
0000
0000
0000
0400
7C00
8800
9400
9400
A400
A400
4400
F800
8000
0000
0000
ENDCHAR

STARTCHAR Cf9
ENCODING 249
SWIDTH 1000 0
DWIDTH 9 0
BBX 9 18 0 -3
BITMAP
0000
0000
0000
0000
2000
1000
0000
8400
8400
8400
8400
8400
8400
8C00
7400
0000
0000
0000
ENDCHAR

STARTCHAR Cfa
ENCODING 250
SWIDTH 1000 0
DWIDTH 9 0
BBX 9 18 0 -3
BITMAP
0000
0000
0000
0000
1000
2000
0000
8400
8400
8400
8400
8400
8400
8C00
7400
0000
0000
0000
ENDCHAR

STARTCHAR Cfb
ENCODING 251
SWIDTH 1000 0
DWIDTH 9 0
BBX 9 18 0 -3
BITMAP
0000
0000
0000
0000
3000
4800
0000
8400
8400
8400
8400
8400
8400
8C00
7400
0000
0000
0000
ENDCHAR

STARTCHAR Cfc
ENCODING 252
SWIDTH 1000 0
DWIDTH 9 0
BBX 9 18 0 -3
BITMAP
0000
0000
0000
0000
4800
4800
0000
8400
8400
8400
8400
8400
8400
8C00
7400
0000
0000
0000
ENDCHAR

STARTCHAR Cfd
ENCODING 253
SWIDTH 1000 0
DWIDTH 9 0
BBX 9 18 0 -3
BITMAP
0000
0000
0000
0000
1800
2000
0000
4400
4400
4400
4400
4400
3C00
0400
0400
4400
3800
0000
ENDCHAR

STARTCHAR Cfe
ENCODING 254
SWIDTH 1000 0
DWIDTH 9 0
BBX 9 18 0 -3
BITMAP
0000
0000
0000
0000
0000
0000
4000
4000
7C00
4200
4200
4200
7C00
4000
4000
4000
4000
0000
ENDCHAR

STARTCHAR Cff
ENCODING 255
SWIDTH 1000 0
DWIDTH 9 0
BBX 9 18 0 -3
BITMAP
0000
0000
0000
0000
2800
2800
0000
4400
4400
4400
4400
4400
3C00
0400
0400
4400
3800
0000
ENDCHAR
ENDFONT
